<svg width="32" height="32" viewBox="0 0 32 32" fill="none" xmlns="http://www.w3.org/2000/svg">
<g clip-path="url(#clip0)">
<path d="M32.4874 31.7996C32.4931 31.7429 32.4744 31.6706 32.4017 31.5878C32.2922 31.4684 18.0894 15.9403 13.8041 12.0789C13.7771 12.1309 13.7494 12.1842 13.7195 12.2373C13.5325 12.5702 13.2892 12.9268 12.973 13.2898C12.597 13.7215 12.118 14.1627 11.5095 14.586C15.7131 18.6704 32.0038 31.7712 32.1295 31.8727C32.2718 31.9746 32.3859 31.953 32.4344 31.909C32.4375 31.9062 32.4405 31.9032 32.4435 31.8999C32.4635 31.8779 32.4829 31.8437 32.4873 31.7996L32.4874 31.7996ZM13.2529 11.602C13.1681 11.5329 13.0905 11.4724 13.0211 11.4212C10.818 9.7969 8.20652 7.57617 7.19316 6.8715C6.987 7.55601 6.49419 8.05338 5.85411 8.28302C6.62327 9.25058 8.99914 11.7094 10.7541 13.7983C10.821 13.878 10.9024 13.9688 10.9969 14.0691C11.5574 13.6876 12.0007 13.2921 12.3505 12.9064C12.689 12.5333 12.9404 12.1693 13.1284 11.8349C13.1734 11.755 13.2151 11.6777 13.253 11.6018L13.2529 11.602Z" fill="#333333"/>
<path d="M7.53269 6.25065C7.7001 4.88464 6.51653 3.13752 5.21928 2.48105C5.10197 2.4106 4.27685 1.93676 4.2542 1.95853C4.22409 1.98738 4.19332 2.01521 4.16197 2.04106C4.13061 2.06691 4.09893 2.09105 4.06633 2.1135C4.03378 2.13597 4.00019 2.15633 3.96638 2.17501C3.93252 2.19369 3.89819 2.21082 3.86316 2.22536C3.82808 2.23989 3.79262 2.25218 3.75643 2.26221C3.72017 2.27222 3.6831 2.27972 3.64566 2.28484C3.60823 2.28996 3.57021 2.29251 3.53164 2.29236C3.493 2.29221 3.45415 2.28948 3.41437 2.28368C3.37458 2.27787 3.33447 2.26936 3.29352 2.25753C3.25263 2.24571 3.21081 2.23036 3.16874 2.21213C3.12667 2.1939 3.08589 2.18022 3.04573 2.17067C3.00563 2.16115 2.96648 2.15596 2.92829 2.15462C2.8901 2.15327 2.85284 2.15599 2.81651 2.16229C2.78017 2.1686 2.74453 2.17848 2.71006 2.19192C2.67559 2.20537 2.64181 2.22238 2.60914 2.24244C2.57642 2.26247 2.54487 2.28552 2.51396 2.31166C2.48299 2.33777 2.4527 2.367 2.42343 2.39867C2.39422 2.43035 2.36603 2.4648 2.33846 2.50151C2.31089 2.53822 2.28407 2.577 2.25815 2.61822C2.23217 2.65942 2.20684 2.70302 2.18245 2.7482C2.13373 2.8386 2.08836 2.93613 2.04575 3.0393C2.00308 3.14246 1.96312 3.25113 1.92623 3.36288C1.88934 3.47462 1.85536 3.58986 1.82389 3.70598C1.79247 3.82212 1.76381 3.93897 1.73743 4.05528C1.7111 4.1716 1.68699 4.28732 1.66538 4.3996C1.66319 4.41121 1.6625 4.4202 1.66031 4.43173C1.8664 5.6105 2.28816 6.64143 3.05979 7.37458C3.43197 7.70905 3.87208 7.97152 4.35413 8.12517C5.92154 8.62477 7.34455 7.78588 7.53269 6.25065Z" fill="#2283B4"/>
<path d="M2.03429 5.64008C2.03484 5.64344 2.03412 5.64194 2.03226 5.63622C0.633158 3.0147 -0.0196555 0.0657511 0.168561 0.00639852C1.88964 0.641808 4.10011 1.93744 4.39434 2.0855L4.31036 2.16495C4.30497 2.17056 4.2997 2.17558 4.29479 2.1797C4.2633 2.20567 4.2316 2.22997 4.19892 2.25254C4.16624 2.27511 4.13262 2.29558 4.09873 2.31437C4.06479 2.33314 4.03032 2.35034 3.99522 2.36496C3.96011 2.37958 3.92456 2.39193 3.88823 2.402C3.85195 2.41208 3.81473 2.4196 3.77726 2.42475C3.73974 2.42989 3.70163 2.43245 3.66291 2.43228C3.62425 2.43214 3.5853 2.42939 3.54543 2.42354C3.50555 2.4177 3.46529 2.40913 3.42431 2.39724C3.38327 2.38533 3.3414 2.3699 3.29924 2.35156C3.25707 2.33323 3.21614 2.31944 3.17595 2.30986C3.13575 2.30028 3.09652 2.29505 3.05818 2.29367C3.0199 2.29232 2.98255 2.29504 2.94619 2.3014C2.90977 2.30773 2.87405 2.31765 2.83949 2.33117C2.80494 2.34469 2.77108 2.36179 2.73828 2.38193C2.70553 2.40209 2.67391 2.42526 2.64287 2.45152C2.61188 2.47779 2.58147 2.50716 2.55218 2.53901C2.52284 2.57086 2.49464 2.60551 2.467 2.64242C2.43936 2.67932 2.41248 2.71831 2.38643 2.75974C2.36045 2.80118 2.33506 2.84501 2.31061 2.89045C2.26177 2.98134 2.21628 3.0794 2.1735 3.18312C2.13078 3.28686 2.09071 3.39613 2.05373 3.50849C2.01675 3.62085 1.98268 3.73671 1.95112 3.85348C1.91956 3.97024 1.89088 4.08777 1.86443 4.2047C1.81086 4.37227 1.82445 4.71992 1.83544 4.73338C1.82577 4.87976 2.00974 5.56692 2.03226 5.63622C2.03294 5.63751 2.03362 5.63879 2.03429 5.64008Z" fill="#3F9EE6"/>
</g>
<defs>
<clipPath id="clip0">
<rect width="32" height="32" transform="matrix(1 0 0 -1 0 32)" fill="white"/>
</clipPath>
</defs>
</svg>
